<mxfile host="app.diagrams.net" modified="2022-03-02T10:10:21.571Z" agent="5.0 (Windows)" etag="N_SAmpVhPGeqjyYkG9K-" version="16.5.2" type="github" pages="2">
  <diagram id="pEpPIXN8fjlOHE0swHMZ" name="Page-1">
    <mxGraphModel dx="868" dy="450" grid="1" gridSize="10" guides="1" tooltips="1" connect="1" arrows="1" fold="1" page="1" pageScale="1" pageWidth="1169" pageHeight="827" math="0" shadow="0">
      <root>
        <mxCell id="0" />
        <mxCell id="1" parent="0" />
        <mxCell id="oNMjwTRkOBNo_UEQeui5-2" style="edgeStyle=orthogonalEdgeStyle;rounded=0;orthogonalLoop=1;jettySize=auto;html=1;entryX=0;entryY=0.5;entryDx=0;entryDy=0;" edge="1" parent="1" source="REdDxQZUkQAhge0i0_Ge-1" target="REdDxQZUkQAhge0i0_Ge-2">
          <mxGeometry relative="1" as="geometry" />
        </mxCell>
        <mxCell id="REdDxQZUkQAhge0i0_Ge-1" value="GHM" style="rounded=0;whiteSpace=wrap;html=1;" parent="1" vertex="1">
          <mxGeometry x="360" y="110" width="120" height="60" as="geometry" />
        </mxCell>
        <mxCell id="REdDxQZUkQAhge0i0_Ge-2" value="GHS" style="rounded=0;whiteSpace=wrap;html=1;" parent="1" vertex="1">
          <mxGeometry x="610" y="110" width="120" height="60" as="geometry" />
        </mxCell>
        <mxCell id="oNMjwTRkOBNo_UEQeui5-1" style="edgeStyle=orthogonalEdgeStyle;rounded=0;orthogonalLoop=1;jettySize=auto;html=1;" edge="1" parent="1" source="REdDxQZUkQAhge0i0_Ge-5" target="REdDxQZUkQAhge0i0_Ge-1">
          <mxGeometry relative="1" as="geometry" />
        </mxCell>
        <mxCell id="REdDxQZUkQAhge0i0_Ge-5" value="PMSI" style="rounded=0;whiteSpace=wrap;html=1;" parent="1" vertex="1">
          <mxGeometry x="120" y="110" width="120" height="60" as="geometry" />
        </mxCell>
        <mxCell id="oNMjwTRkOBNo_UEQeui5-3" value="RSS / RUM" style="text;html=1;strokeColor=none;fillColor=none;align=center;verticalAlign=middle;whiteSpace=wrap;rounded=0;" vertex="1" parent="1">
          <mxGeometry x="260" y="100" width="80" height="30" as="geometry" />
        </mxCell>
        <mxCell id="oNMjwTRkOBNo_UEQeui5-6" value="ENC / " style="text;html=1;strokeColor=none;fillColor=none;align=center;verticalAlign=middle;whiteSpace=wrap;rounded=0;" vertex="1" parent="1">
          <mxGeometry x="510" y="100" width="80" height="30" as="geometry" />
        </mxCell>
      </root>
    </mxGraphModel>
  </diagram>
  <diagram id="3_cAaf1JO6WXbzpz-YbP" name="Page-2">
    <mxGraphModel dx="868" dy="450" grid="1" gridSize="10" guides="1" tooltips="1" connect="1" arrows="1" fold="1" page="1" pageScale="1" pageWidth="1169" pageHeight="827" math="0" shadow="0">
      <root>
        <mxCell id="wu8gszZe-gb1DjDhQaDQ-0" />
        <mxCell id="wu8gszZe-gb1DjDhQaDQ-1" parent="wu8gszZe-gb1DjDhQaDQ-0" />
      </root>
    </mxGraphModel>
  </diagram>
</mxfile>
